<svg id="Layer_35" enable-background="new 0 0 64 64" height="512" viewBox="0 0 64 64" width="512" xmlns="http://www.w3.org/2000/svg"><path d="m11.05 17c.5-5.61 5.21-10 10.95-10 1.91 0 3.71.49 5.28 1.35 2.5-3.83 6.82-6.35 11.72-6.35 7.73 0 14 6.27 14 14 0 .34-.03.67-.05 1h.05c4.97 0 9 4.03 9 9s-4.03 9-9 9h-8l-.01-.01 2.57-3.3-4.25-4.25-3.53 2.75c-1.29-.78-2.71-1.38-4.22-1.75l-.56-4.44h-6l-.56 4.44c-1.51.37-2.93.97-4.22 1.75l-3.53-2.75-4.25 4.25 2.57 3.3-.01.01h-8c-4.97 0-9-4.03-9-9s4.03-9 9-9z" fill="#e6e9ed"/><path d="m10.97 58.29c.3-.19.65-.29 1.03-.29 1.1 0 2 .9 2 2s-.9 2-2 2-2-.9-2-2c0-.72.39-1.36.97-1.71z" fill="#ff826e"/><path d="m58 38c1.1 0 2 .9 2 2s-.9 2-2 2c-.01 0-.01 0-.02 0-1.09-.01-1.98-.91-1.98-2 0-1.1.9-2 2-2z" fill="#ff826e"/><path d="m51 40v6l-4.44.56c-.37 1.51-.97 2.93-1.75 4.22l2.75 3.53-4.25 4.25-3.53-2.75c-1.29.78-2.71 1.38-4.22 1.75l-.56 4.44h-6l-.56-4.44c-1.51-.37-2.93-.97-4.22-1.75l-3.53 2.75-4.25-4.25 2.75-3.53c-.78-1.29-1.38-2.71-1.75-4.22l-4.44-.56v-6l4.44-.56c.37-1.51.97-2.93 1.75-4.22l-.18-.23-2.57-3.3 4.25-4.25 3.53 2.75c1.29-.78 2.71-1.38 4.22-1.75l.56-4.44h6l.56 4.44c1.51.37 2.93.97 4.22 1.75l3.53-2.75 4.25 4.25-2.57 3.3-.18.23c.78 1.29 1.38 2.71 1.75 4.22zm-8 3c0-6.08-4.92-11-11-11s-11 4.92-11 11 4.92 11 11 11 11-4.92 11-11z" fill="#ffc729"/><path d="m32 32c6.08 0 11 4.92 11 11s-4.92 11-11 11-11-4.92-11-11 4.92-11 11-11zm7 11c0-3.87-3.13-7-7-7s-7 3.13-7 7 3.13 7 7 7 7-3.13 7-7z" fill="#fcd770"/><path d="m39 7v-2c-.746 0-1.492.075-2.216.224l.401 1.959c.593-.121 1.203-.183 1.815-.183z"/><path d="m35.527 7.694-.772-1.844c-4.104 1.717-6.755 5.701-6.755 10.15h2c0-3.64 2.169-6.9 5.527-8.306z"/><path d="m47.351 47.464 4.649-.581v-7.766l-4.649-.581c-.255-.876-.605-1.717-1.005-2.536h6.654c5.514 0 10-4.486 10-10 0-5.163-3.932-9.424-9-9.944 0-.019 0-.037 0-.056 0-8.271-6.729-15-15-15-4.935 0-9.307 2.406-12.042 6.095-1.552-.705-3.242-1.095-4.958-1.095-5.872 0-10.888 4.34-11.833 10.042-5.125.426-9.167 4.725-9.167 9.958 0 5.514 4.486 10 10 10h6.654c-.4.819-.751 1.66-1.005 2.536l-4.649.581v7.766l4.649.581c.327 1.124.775 2.207 1.341 3.233l-2.877 3.699 5.491 5.491 3.699-2.877c1.026.565 2.109 1.014 3.233 1.341l.581 4.649h7.766l.581-4.649c1.124-.327 2.207-.775 3.233-1.341l3.699 2.877 5.491-5.491-2.877-3.699c.566-1.026 1.014-2.109 1.341-3.233zm-44.351-21.464c0-4.411 3.589-8 8-8 2.118 0 4.114.819 5.62 2.307l1.405-1.423c-1.597-1.578-3.637-2.546-5.834-2.806.906-4.608 5.016-8.078 9.809-8.078 1.329 0 2.641.275 3.858.783-1.182 2.143-1.858 4.602-1.858 7.217h2c0-7.168 5.832-13 13-13s13 5.832 13 13c0 .28-.021.556-.048.931l-.027 1.069h1.075c4.411 0 8 3.589 8 8s-3.589 8-8 8h-5.976l1.864-2.396-5.491-5.491-3.699 2.877c-1.026-.565-2.109-1.014-3.233-1.341l-.582-4.649h-7.766l-.581 4.649c-1.124.327-2.207.775-3.233 1.341l-3.699-2.877-5.491 5.491 1.863 2.396h-5.976c-4.411 0-8-3.589-8-8zm43.225 28.23-2.994 2.994-3.382-2.63-.589.359c-1.225.746-2.55 1.295-3.941 1.634l-.67.163-.532 4.25h-4.234l-.531-4.25-.67-.163c-1.391-.338-2.716-.888-3.941-1.634l-.589-.359-3.382 2.63-2.994-2.994 2.63-3.382-.359-.589c-.746-1.225-1.295-2.55-1.634-3.941l-.163-.67-4.25-.531v-4.234l4.25-.531.163-.67c.338-1.391.888-2.716 1.634-3.941l.359-.589-2.63-3.382 2.994-2.994 3.382 2.63.589-.359c1.225-.746 2.55-1.295 3.941-1.634l.67-.163.531-4.25h4.234l.531 4.25.67.163c1.391.338 2.716.888 3.941 1.634l.589.359 3.382-2.63 2.994 2.994-2.63 3.382.359.589c.746 1.225 1.295 2.55 1.634 3.941l.163.67 4.25.531v4.234l-4.25.531-.163.67c-.338 1.391-.888 2.716-1.634 3.941l-.359.589z"/><path d="m32 35c-4.411 0-8 3.589-8 8s3.589 8 8 8 8-3.589 8-8-3.589-8-8-8zm0 14c-3.309 0-6-2.691-6-6s2.691-6 6-6 6 2.691 6 6-2.691 6-6 6z"/><path d="m39.199 33.398c-.591-.444-1.226-.834-1.885-1.161l-.887 1.793c.55.271 1.078.597 1.571.967z"/><path d="m41.824 41.122 1.965-.374c-.138-.726-.345-1.441-.614-2.127l-1.862.729c.224.572.396 1.168.511 1.772z"/><path d="m42.18 36.644c-.39-.625-.842-1.217-1.341-1.76l-1.473 1.353c.417.454.793.948 1.119 1.468z"/><path d="m44 43.031v-.077l-2 .046c0 .618-.057 1.236-.168 1.838l1.967.365c.133-.722.201-1.463.201-2.172z"/><path d="m35.245 31.444c-.71-.199-1.442-.333-2.177-.397l-.176 1.992c.612.054 1.222.166 1.814.331z"/><path d="m31.045 33.045-.188-1.991c-.736.069-1.468.208-2.176.411l.553 1.922c.589-.169 1.198-.284 1.811-.342z"/><path d="m38.031 50.977 1.207 1.595c.588-.445 1.138-.947 1.634-1.492l-1.479-1.347c-.414.454-.872.873-1.362 1.244z"/><path d="m40.506 48.26 1.699 1.055c.389-.627.721-1.294.988-1.982l-1.865-.723c-.221.573-.498 1.128-.822 1.65z"/><path d="m32.014 53c-.314-.006-.621-.014-.925-.041l-.183 1.991c.366.034.712.049 1.11.05.371 0 .739-.018 1.103-.051l-.185-1.991c-.303.027-.609.042-.92.042z"/><path d="m22.679 46.63-1.863.727c.267.685.601 1.351.991 1.979l1.698-1.057c-.326-.524-.604-1.078-.826-1.649z"/><path d="m23.144 51.099c.498.544 1.049 1.045 1.637 1.488l1.204-1.597c-.491-.37-.95-.788-1.366-1.242z"/><path d="m26.664 53.751c.66.328 1.355.597 2.066.798l.544-1.925c-.592-.167-1.17-.391-1.72-.664z"/><path d="m34.746 52.618.548 1.924c.709-.202 1.403-.472 2.064-.802l-.894-1.789c-.55.275-1.128.499-1.718.667z"/><path d="m22.664 39.409-1.866-.719c-.265.688-.467 1.405-.6 2.132l1.967.36c.11-.604.278-1.201.499-1.773z"/><path d="m24.593 36.282-1.481-1.344c-.496.546-.943 1.141-1.331 1.768l1.702 1.051c.323-.523.696-1.019 1.11-1.475z"/><path d="m27.517 34.059-.896-1.788c-.658.33-1.29.725-1.878 1.172l1.211 1.592c.49-.373 1.016-.702 1.563-.976z"/><path d="m22 43.021-2 .004c.001.74.071 1.481.207 2.203l1.966-.369c-.114-.602-.172-1.22-.173-1.838z"/><path d="m58 37c-1.654 0-3 1.346-3 3 0 1.301.837 2.4 1.997 2.815 0 .062.003.123.003.185 0 6.898-2.892 13.558-7.935 18.27l1.365 1.461c5.446-5.089 8.57-12.281 8.57-19.731 0-.061-.003-.122-.004-.183 1.164-.413 2.004-1.514 2.004-2.817 0-1.654-1.346-3-3-3zm0 4c-.551 0-1-.449-1-1s.449-1 1-1 1 .449 1 1-.449 1-1 1z"/><path d="m12 57c-.221 0-.435.028-.643.073-2.842-4.157-4.357-9-4.357-14.073 0-1.618.155-3.236.462-4.809l-1.963-.383c-.331 1.699-.499 3.446-.499 5.192 0 5.454 1.622 10.662 4.665 15.139-.41.513-.665 1.155-.665 1.861 0 1.654 1.346 3 3 3s3-1.346 3-3-1.346-3-3-3zm0 4c-.551 0-1-.449-1-1s.449-1 1-1 1 .449 1 1-.449 1-1 1z"/></svg>