<?xml version="1.0" encoding="iso-8859-1"?>
<!-- Generator: Adobe Illustrator 19.0.0, SVG Export Plug-In . SVG Version: 6.00 Build 0)  -->
<svg xmlns="http://www.w3.org/2000/svg" xmlns:xlink="http://www.w3.org/1999/xlink" version="1.1" id="Layer_1" x="0px" y="0px" viewBox="0 0 512 512" style="enable-background:new 0 0 512 512;" xml:space="preserve" width="512" height="512">
<g>
	<path d="M255.687,342c-22.056,0-40,17.944-40,40s17.944,40,40,40c22.056,0,40-17.944,40-40S277.744,342,255.687,342z M255.687,402   c-11.028,0-20-8.972-20-20s8.972-20,20-20c11.028,0,20,8.972,20,20S266.715,402,255.687,402z"/>
	<path d="M116.56,165.52c-2.27,0-4.42,0.75-6.21,2.16c0,0.01,0,0.01,0,0.01c-2.09,1.66-3.41,4.03-3.72,6.68   c-0.3,2.65,0.44,5.27,2.1,7.36c1.91,2.41,4.77,3.79,7.84,3.79l0.01-0.05v0.05c2.27,0,4.41-0.75,6.19-2.16c0.01,0,0.01,0,0.01-0.01   c4.32-3.42,5.05-9.73,1.62-14.05C122.5,166.9,119.64,165.52,116.56,165.52z"/>
	<path d="M422.841,118.809c-1.792-2.177-4.421-3.497-7.237-3.633c-2.81-0.139-5.56,0.923-7.554,2.917L118.093,408.049   c-1.994,1.994-3.053,4.737-2.917,7.554c0.136,2.816,1.456,5.445,3.633,7.237C157.318,454.542,206.041,472,256,472   c57.696,0,111.938-22.468,152.735-63.265C449.532,367.938,472,313.696,472,256C472,206.04,454.542,157.318,422.841,118.809z    M256,452c-41.637,0-82.323-13.36-115.751-37.823l112.33-112.33c1.034-0.032,2.07-0.054,3.108-0.054   c22.823,0,44.492,7.862,62.665,22.736c4.274,3.499,10.574,2.87,14.072-1.404s2.87-10.574-1.404-14.072   c-17.548-14.364-37.865-23.253-59.472-26.175l53.67-53.67c13.832,6.01,27.019,13.844,39.314,23.446   c4.352,3.399,10.638,2.626,14.036-1.727c3.399-4.353,2.626-10.637-1.727-14.036c-11.526-9.001-23.767-16.588-36.547-22.759   l38.273-38.272c3.679,2.605,7.31,5.318,10.874,8.17c1.76,1.41,3.98,2.19,6.24,2.19c3.06,0,5.9-1.36,7.81-3.75   c3.45-4.3,2.75-10.61-1.55-14.05c-2.968-2.378-5.983-4.674-9.036-6.897l21.274-21.274C438.64,173.677,452,214.362,452,256   C452,364.075,364.075,452,256,452z"/>
	<path d="M437.019,74.98C388.667,26.628,324.38,0,256,0C187.62,0,123.333,26.629,74.98,74.981S0,187.62,0,256   S26.629,388.668,74.981,437.02C123.333,485.372,187.62,512,256,512c68.38,0,132.667-26.629,181.019-74.981S512,324.38,512,256   C512,187.62,485.371,123.333,437.019,74.98z M256,492C125.869,492,20,386.131,20,256C20,125.869,125.869,20,256,20   c130.131,0,236,105.869,236,236C492,386.131,386.131,492,256,492z"/>
	<path d="M396.824,96.396c-0.136-2.816-1.456-5.445-3.633-7.237C354.682,57.458,305.959,40,256,40   c-57.696,0-111.938,22.468-152.735,63.265C62.468,144.062,40,198.304,40,256c0,49.96,17.458,98.682,49.159,137.191   c1.792,2.177,4.421,3.497,7.237,3.633c0.162,0.008,0.323,0.012,0.484,0.012c2.645,0,5.191-1.049,7.07-2.929l289.957-289.957   C395.901,101.957,396.96,99.213,396.824,96.396z M338.027,131.546c-1.325-0.51-2.653-1.011-3.987-1.497   c-25.2-9.18-51.55-13.83-78.31-13.83h-0.07c-19.49,0-38.92,2.49-57.74,7.4c-18.27,4.78-36.06,11.85-52.86,21.03   c-2.34,1.28-4.05,3.4-4.8,5.96s-0.46,5.27,0.82,7.61c1.75,3.21,5.12,5.21,8.79,5.21c1.66,0,3.31-0.42,4.78-1.23   c31.56-17.23,65.55-25.97,101.04-25.98c22.908,0.005,45.327,3.717,66.733,10.931l-48.482,48.482   c-6.036-0.565-12.123-0.858-18.253-0.858c-43.979,0-85.874,14.564-121.156,42.119c-4.353,3.399-5.125,9.684-1.726,14.037   c1.972,2.525,4.915,3.845,7.888,3.845c2.152,0,4.321-0.692,6.148-2.119c31.491-24.594,68.8-37.675,107.948-37.872L97.823,371.751   C73.36,338.323,60,297.638,60,256c0-108.075,87.925-196,196-196c41.637,0,82.323,13.36,115.751,37.823L338.027,131.546z"/>
</g>















</svg>
