<?xml version="1.0" encoding="iso-8859-1"?>
<!-- Generator: Adobe Illustrator 19.0.0, SVG Export Plug-In . SVG Version: 6.00 Build 0)  -->
<svg version="1.1" id="Capa_1" xmlns="http://www.w3.org/2000/svg" xmlns:xlink="http://www.w3.org/1999/xlink" x="0px" y="0px"
	 viewBox="0 0 512.403 512.403" style="enable-background:new 0 0 512.403 512.403;" xml:space="preserve">
<path style="fill:#F44336;" d="M288.201,0.403c-18.849-2.047-37.709,3.764-52.139,16.064c-2.983,3.42-7.324,5.349-11.861,5.269
	c-5.216,0.029-10.159-2.328-13.419-6.4c-10.575-10.429-25.091-15.86-39.915-14.933c-40,0-128,67.051-128,138.667
	c0,5.891,4.776,10.667,10.667,10.667h42.667c2.831,0.005,5.548-1.115,7.552-3.115c3.543-3.251,7.452-6.079,11.648-8.427
	c-4.672,14.507-7.573,27.136-8.213,30.016l-20.715,62.336c-10.896,21.563-18.408,44.674-22.272,68.523
	c-0.003,0.871,0.104,1.738,0.32,2.581c0.96,3.819,25.152,93.419,181.013,93.419c154.155,0,199.68-87.467,201.536-91.221
	c0.743-1.483,1.131-3.12,1.131-4.779C448.201,113.79,344.607,0.403,288.201,0.403z"/>
<path style="fill:#CFD8DC;" d="M448.201,288.403c-19.095,1.296-37.956,4.958-56.149,10.901
	c-44.062,13.405-89.799,20.509-135.851,21.099c-46.052-0.59-91.789-7.693-135.851-21.099c-18.193-5.943-37.054-9.605-56.149-10.901
	c-48.363,0-64,79.061-64,117.333c0,51.371,80.107,106.667,256,106.667s256-55.296,256-106.667
	C512.201,367.464,496.564,288.403,448.201,288.403z"/>
<path style="fill:#D32F2F;" d="M74.868,171.07c-5.891,0.011-10.675-4.757-10.686-10.648c-0.005-2.84,1.123-5.565,3.134-7.571
	c42.292-40.858,98.128-64.745,156.885-67.115c5.891,0,10.667,4.776,10.667,10.667c0,5.891-4.776,10.667-10.667,10.667
	c-53.02,2.689-103.321,24.29-141.781,60.885C80.416,169.954,77.699,171.075,74.868,171.07z"/>
<circle style="fill:#FFC107;" cx="64.201" cy="192.403" r="64"/>
<path d="M64.201,256.403c-35.346,0-64-28.654-64-64s28.654-64,64-64s64,28.654,64,64S99.548,256.403,64.201,256.403z
	 M64.201,149.736c-23.564,0-42.667,19.103-42.667,42.667s19.103,42.667,42.667,42.667s42.667-19.103,42.667-42.667
	S87.766,149.736,64.201,149.736z"/>
<path d="M256.201,512.403c-175.893,0-256-55.296-256-106.667c0-38.293,15.637-117.333,64-117.333
	c19.095,1.301,37.955,4.962,56.149,10.901c44.059,13.416,89.798,20.52,135.851,21.099c46.053-0.579,91.791-7.682,135.851-21.099
	c18.194-5.939,37.054-9.601,56.149-10.901c48.363,0,64,79.04,64,117.333C512.201,457.107,432.095,512.403,256.201,512.403z
	 M64.201,309.736c-26.432,0-42.667,55.915-42.667,96c0,33.003,63.701,85.333,234.667,85.333s234.667-52.331,234.667-85.333
	c0-40.085-16.235-96-42.667-96c-17.201,1.397-34.178,4.813-50.581,10.176c-45.89,13.838-93.492,21.184-141.419,21.824
	c-47.927-0.64-95.528-7.986-141.419-21.824C98.38,314.549,81.402,311.134,64.201,309.736z"/>
<path d="M437.535,309.736c-5.891,0-10.667-4.776-10.667-10.667c0-180.139-98.411-277.333-138.667-277.333
	c-13.799-1.933-27.767,2.11-38.4,11.115c-6.834,6.677-16.047,10.354-25.6,10.219c-10.447,0.094-20.46-4.174-27.627-11.776
	c-6.648-6.962-16.125-10.486-25.707-9.557c-29.035,0-106.667,57.067-106.667,117.333c0,5.891-4.776,10.667-10.667,10.667
	s-10.667-4.776-10.667-10.667c0-71.616,88.021-138.667,128-138.667c14.832-0.941,29.361,4.491,39.936,14.933
	c3.239,4.086,8.183,6.448,13.397,6.4c4.546,0.089,8.897-1.841,11.883-5.269c14.422-12.299,33.274-18.11,52.117-16.064
	c56.427,0,160,113.387,160,298.667C448.201,304.961,443.426,309.736,437.535,309.736z"/>
<path d="M96.201,149.736c-5.891,0.011-10.675-4.757-10.686-10.648c-0.005-2.84,1.123-5.565,3.134-7.571
	c20.203-20.181,88.043-45.781,135.552-45.781c5.891,0,10.667,4.776,10.667,10.667c0,5.891-4.776,10.667-10.667,10.667
	c-43.068,1.603-84.813,15.311-120.448,39.552C101.749,148.621,99.032,149.741,96.201,149.736z"/>
<path d="M74.868,309.736c-5.891,0-10.667-4.776-10.667-10.667c3.91-23.855,11.45-46.971,22.357-68.544
	c2.018-5.535,8.141-8.385,13.675-6.367c5.535,2.018,8.385,8.141,6.367,13.675c-0.225,0.618-0.507,1.214-0.843,1.78
	c-9.583,18.736-16.395,38.763-20.224,59.456C85.535,304.961,80.759,309.736,74.868,309.736z"/>
<path d="M117.535,181.736c-5.891,0.007-10.673-4.762-10.68-10.653c-0.001-1.15,0.183-2.293,0.547-3.384
	c6.86-22.255,19.216-42.424,35.925-58.645c4.729-3.512,11.411-2.526,14.923,2.204c3.512,4.729,2.526,11.411-2.203,14.923
	c-0.1,0.074-0.201,0.147-0.304,0.217c-13.009,13.581-22.628,30.042-28.075,48.043C126.215,178.802,122.132,181.742,117.535,181.736z
	"/>
<g>
</g>
<g>
</g>
<g>
</g>
<g>
</g>
<g>
</g>
<g>
</g>
<g>
</g>
<g>
</g>
<g>
</g>
<g>
</g>
<g>
</g>
<g>
</g>
<g>
</g>
<g>
</g>
<g>
</g>
</svg>
