<svg height="512" viewBox="0 0 64 64" width="512" xmlns="http://www.w3.org/2000/svg"><path d="m50.73 47a24 24 0 1 0 -37.46 0z" fill="#f1bf37"/><path d="m61 46h-8.3a25 25 0 1 0 -41.4 0h-8.3a1 1 0 0 0 0 2h58a1 1 0 0 0 0-2zm-52-14a23 23 0 1 1 41.224 14h-36.448a23.078 23.078 0 0 1 -4.776-14z"/><path d="m48 50h-32a1 1 0 0 0 0 2h32a1 1 0 0 0 0-2z"/><path d="m45 54h-26a1 1 0 0 0 0 2h26a1 1 0 0 0 0-2z"/><path d="m42 58h-2a1 1 0 0 0 0 2h2a1 1 0 0 0 0-2z"/><path d="m36 58h-14a1 1 0 0 0 0 2h14a1 1 0 0 0 0-2z"/><path d="m32 6a1 1 0 0 0 1-1v-2a1 1 0 0 0 -2 0v2a1 1 0 0 0 1 1z"/><path d="m10.293 11.707a1 1 0 0 0 1.414-1.414l-3-3a1 1 0 1 0 -1.414 1.414z"/><path d="m53 12a1 1 0 0 0 .707-.293l3-3a1 1 0 1 0 -1.414-1.414l-3 3a1 1 0 0 0 .707 1.707z"/><path d="m3 33h2a1 1 0 0 0 0-2h-2a1 1 0 0 0 0 2z"/><path d="m59 33h2a1 1 0 0 0 0-2h-2a1 1 0 0 0 0 2z"/><path d="m36 14h-8a1 1 0 0 0 0 2h8a1 1 0 0 0 0-2z"/><path d="m30 18h-5a1 1 0 0 0 0 2h5a1 1 0 0 0 0-2z"/><path d="m21 37a1 1 0 0 0 -1-1h-4a1 1 0 0 0 0 2h4a1 1 0 0 0 1-1z"/><path d="m25 40h-6a1 1 0 0 0 0 2h6a1 1 0 0 0 0-2z"/><path d="m46 29a1 1 0 0 0 -1-1h-4a1 1 0 0 0 0 2h4a1 1 0 0 0 1-1z"/><path d="m49 32h-5a1 1 0 0 0 0 2h5a1 1 0 0 0 0-2z"/></svg>