<?xml version="1.0"?>
<svg xmlns="http://www.w3.org/2000/svg" viewBox="0 0 64 64" width="512" height="512"><g id="Filled_outline" data-name="Filled outline"><path d="M3,27s12-8,29-4,29-2,29-2-1.51,18.5-28,9C27.1,27.883,22,25,3,27Z" style="fill:#92cdde"/><path d="M9,32s11-4,24,3c8.805,4.741,22,1,22,1S42,49,28,39C24.087,36.205,18,32,9,32Z" style="fill:#92cdde"/><path d="M45.75,20.749a26.97,26.97,0,0,1-5.975-.774,65.376,65.376,0,0,0-23.6-.991l-.358-1.967a66.151,66.151,0,0,1,24.4,1.008c6.2,1.431,9.079.471,10.407-.584A3.48,3.48,0,0,0,52,15a1,1,0,0,1,.02-.2,3.563,3.563,0,0,0-.61-2.631A4.246,4.246,0,0,0,48,11c-4.781,0-4.992,2.7-5,3.013L41,14c0-.05.08-5,7-5,2.253,0,3.924.645,4.966,1.916A5.524,5.524,0,0,1,54,15.106a5.519,5.519,0,0,1-2.119,3.9A9.626,9.626,0,0,1,45.75,20.749Z" style="fill:#418abd"/><path d="M50,57c-6.92,0-7-4.95-7-5h2c.008.3.219,3,5,3a3.961,3.961,0,0,0,3.18-1.178,5.181,5.181,0,0,0,.834-3.658A1,1,0,0,1,54,50a2.473,2.473,0,0,0-1.056-1.7c-1.283-.981-4.182-1.832-10.719-.323-13.417,3.091-24.5-8.791-24.962-9.3l1.473-1.352c.107.115,10.766,11.537,23.039,8.7,5.927-1.368,10.122-1.117,12.467.749A4.4,4.4,0,0,1,56,49.908a7.063,7.063,0,0,1-1.291,5.207A5.849,5.849,0,0,1,50,57Z" style="fill:#418abd"/><path d="M33,52c-7.292,0-15.32-6.951-15.658-7.247l1.316-1.506C18.735,43.314,26.463,50,33,50Z" style="fill:#418abd"/><path d="M9.511,17.859,8.485,16.143C8.7,16.015,13.862,13,26,13v2C14.5,15,9.56,17.831,9.511,17.859Z" style="fill:#418abd"/><rect x="28" y="13" width="2" height="2" style="fill:#418abd"/><rect x="11" y="37" width="2" height="2" style="fill:#92cdde"/><rect x="11" y="41" width="2" height="2" style="fill:#92cdde"/><rect x="9" y="39" width="2" height="2" style="fill:#92cdde"/><rect x="13" y="39" width="2" height="2" style="fill:#92cdde"/><rect x="36" y="53" width="2" height="2" style="fill:#92cdde"/><rect x="36" y="57" width="2" height="2" style="fill:#92cdde"/><rect x="34" y="55" width="2" height="2" style="fill:#92cdde"/><rect x="38" y="55" width="2" height="2" style="fill:#92cdde"/><rect x="35" y="7" width="2" height="2" style="fill:#92cdde"/><rect x="35" y="11" width="2" height="2" style="fill:#92cdde"/><rect x="33" y="9" width="2" height="2" style="fill:#92cdde"/><rect x="37" y="9" width="2" height="2" style="fill:#92cdde"/><rect x="8" y="7" width="2" height="2" style="fill:#92cdde"/><rect x="8" y="11" width="2" height="2" style="fill:#92cdde"/><rect x="6" y="9" width="2" height="2" style="fill:#92cdde"/><rect x="10" y="9" width="2" height="2" style="fill:#92cdde"/><path d="M46.406,29.605a26.782,26.782,0,0,1-5.616-.627l.42-1.956c13.118,2.809,17.869-5.423,17.916-5.507l1.748.97C60.828,22.568,56.779,29.605,46.406,29.605Z" style="fill:#418abd"/><path d="M61.561,20.172a1,1,0,0,0-1.007-.067c-.117.057-11.914,5.782-28.325,1.921C15.005,17.976,2.95,25.832,2.445,26.168A1,1,0,0,0,3.1,27.994c16.955-1.783,22.5.3,27.863,2.319.566.213,1.127.424,1.7.628a41.272,41.272,0,0,0,13.662,2.78,17.066,17.066,0,0,0,9.432-2.48A14.289,14.289,0,0,0,62,21.081,1,1,0,0,0,61.561,20.172Zm-6.913,9.4c-4.732,3.034-11.9,2.858-21.31-.516-.559-.2-1.11-.409-1.668-.618C27.729,26.959,23.4,25.33,14.337,25.33c-1.822,0-3.839.066-6.079.213a39.643,39.643,0,0,1,23.513-1.569,49.255,49.255,0,0,0,25.867-.626c-2.277,2.272-7.346,5.619-16.428,3.674l-.42,1.956a26.782,26.782,0,0,0,5.616.627,17.468,17.468,0,0,0,12.269-4.518A11.511,11.511,0,0,1,54.648,29.575Z"/><path d="M54.728,35.038c-.127.034-12.915,3.571-21.254-.919C20.232,26.99,9.124,30.89,8.658,31.061A1,1,0,0,0,9,33c8.879,0,14.851,4.266,18.419,6.813a19.91,19.91,0,0,0,11.766,3.958,21.444,21.444,0,0,0,7.936-1.592,27.769,27.769,0,0,0,8.586-5.472,1,1,0,0,0-.979-1.669Zm-8.411,5.308a17.684,17.684,0,0,1-17.736-2.159,36.4,36.4,0,0,0-12.432-6.294,32.479,32.479,0,0,1,16.377,3.988c5.993,3.226,13.773,2.726,18.51,1.972A25.724,25.724,0,0,1,46.317,40.346Z"/><path d="M39.775,19.975a26.97,26.97,0,0,0,5.975.774,9.626,9.626,0,0,0,6.127-1.743A5.519,5.519,0,0,0,54,15.106a5.524,5.524,0,0,0-1.03-4.19C51.924,9.645,50.253,9,48,9c-6.92,0-7,4.95-7,5l2,.013C43.008,13.7,43.219,11,48,11a4.246,4.246,0,0,1,3.41,1.173,3.563,3.563,0,0,1,.61,2.631A1,1,0,0,0,52,15a3.48,3.48,0,0,1-1.368,2.441c-1.328,1.055-4.212,2.015-10.407.584a66.151,66.151,0,0,0-24.4-1.008l.358,1.967A65.376,65.376,0,0,1,39.775,19.975Z"/><path d="M50,55c-4.781,0-4.992-2.7-5-3H43c0,.05.08,5,7,5a5.849,5.849,0,0,0,4.706-1.885A7.063,7.063,0,0,0,56,49.908a4.4,4.4,0,0,0-1.755-3.134c-2.345-1.866-6.54-2.117-12.467-.749-12.273,2.836-22.932-8.586-23.039-8.7l-1.473,1.352c.466.508,11.545,12.39,24.962,9.3,6.537-1.509,9.436-.658,10.719.323A2.473,2.473,0,0,1,54,50a1,1,0,0,0,.014.164,5.181,5.181,0,0,1-.834,3.658A3.961,3.961,0,0,1,50,55Z"/><path d="M33,52V50c-6.537,0-14.265-6.686-14.342-6.753l-1.316,1.506C17.68,45.049,25.708,52,33,52Z"/><path d="M26,15V13C13.862,13,8.7,16.015,8.485,16.143l1.026,1.716C9.56,17.831,14.5,15,26,15Z"/><rect x="28" y="13" width="2" height="2"/><rect x="11" y="37" width="2" height="2"/><rect x="11" y="41" width="2" height="2"/><rect x="9" y="39" width="2" height="2"/><rect x="13" y="39" width="2" height="2"/><rect x="36" y="53" width="2" height="2"/><rect x="36" y="57" width="2" height="2"/><rect x="34" y="55" width="2" height="2"/><rect x="38" y="55" width="2" height="2"/><rect x="35" y="7" width="2" height="2"/><rect x="35" y="11" width="2" height="2"/><rect x="33" y="9" width="2" height="2"/><rect x="37" y="9" width="2" height="2"/><rect x="8" y="7" width="2" height="2"/><rect x="8" y="11" width="2" height="2"/><rect x="6" y="9" width="2" height="2"/><rect x="10" y="9" width="2" height="2"/></g></svg>
