<?xml version="1.0" encoding="iso-8859-1"?>
<!-- Generator: Adobe Illustrator 19.0.0, SVG Export Plug-In . SVG Version: 6.00 Build 0)  -->
<svg xmlns="http://www.w3.org/2000/svg" xmlns:xlink="http://www.w3.org/1999/xlink" version="1.1" id="Capa_1" x="0px" y="0px" viewBox="0 0 511.984 511.984" style="enable-background:new 0 0 511.984 511.984;" xml:space="preserve" width="512" height="512">
<g>
	<g>
		<path style="fill:#ECEAEC;" d="M135.251,57.613c0-26.336,20.294-49.301,46.618-50.091c27.238-0.817,49.576,21.02,49.576,48.074    l0,278.698c0,4.844,2.158,9.472,5.982,12.446c23.246,18.079,37.225,47.499,33.5,79.989c-4.606,40.171-37.31,72.752-77.497,77.21    c-53.213,5.902-98.26-35.597-98.26-87.617c0-28.322,13.379-53.486,34.137-69.611c3.813-2.962,5.944-7.591,5.944-12.419    L135.251,57.613z"/>
		<path style="fill:#DAD8DB;" d="M167.315,10.379c-18.884,7.009-32.065,26.018-32.065,47.234v276.679    c0,4.828-2.131,9.457-5.944,12.419c-20.759,16.126-34.137,41.29-34.137,69.611c0,43.212,31.117,79.064,72.145,86.617V10.379z"/>
		<polygon style="fill:#DBEAFF;" points="233.948,173.115 233.948,94.769 301.798,55.596 369.647,94.769 369.647,173.115     301.798,212.288   "/>
		<path style="fill:#C8C5C9;" d="M204.245,364.261c-2.864-1.15-4.866-3.765-4.866-6.851V56.454c0-7.986-5.457-15.388-13.339-16.67    c-0.917-0.149-1.804-0.139-2.693-0.138c-0.889-0.001-1.776-0.011-2.693,0.138c-7.883,1.282-13.339,8.684-13.339,16.67V357.41    c0,3.086-2.002,5.701-4.866,6.851c-20.636,8.287-35.215,28.461-35.215,52.061c0,30.984,25.131,56.026,56.113,56.036    c30.982-0.009,56.113-25.051,56.113-56.036C239.46,392.722,224.882,372.549,204.245,364.261z"/>
		<path style="fill:#A4CCFF;" d="M167.315,288.064v69.346c0,3.086-2.002,5.701-4.866,6.851    c-20.636,8.287-35.215,28.461-35.215,52.061c0,30.984,25.131,56.026,56.113,56.036c30.982-0.009,56.113-25.051,56.113-56.036    c0-23.6-14.579-43.774-35.215-52.061c-2.864-1.15-4.866-3.765-4.866-6.851v-69.346H167.315z"/>
		<path style="fill:#8BB3EA;" d="M199.38,456.326c-30.982-0.009-56.113-25.051-56.113-56.036c0-11.324,3.424-21.813,9.196-30.625    c-15.152,10.041-25.229,27.117-25.229,46.657c0,30.984,25.131,56.026,56.113,56.036c19.613-0.006,36.856-10.06,46.889-25.286    C221.38,452.906,210.784,456.322,199.38,456.326z"/>
	</g>
	<g>
		<path d="M414.871,155.042l-40.801,10.932l-20.914-12.075v-39.915l20.914-12.074l40.801,10.932c0.65,0.174,1.303,0.257,1.946,0.257    c3.311,0,6.342-2.21,7.24-5.561c1.072-4.001-1.303-8.113-5.304-9.186l-26.312-7.05l22.566-13.029    c3.587-2.071,4.816-6.658,2.745-10.245s-6.658-4.817-10.245-2.745l-22.566,13.029l7.05-26.312    c1.072-4.001-1.303-8.113-5.304-9.186c-3.996-1.069-8.113,1.302-9.186,5.304l-10.932,40.8l-20.018,11.557l-37.259-21.511V55.091    l29.868-29.868c2.929-2.929,2.929-7.678,0-10.606c-2.929-2.93-7.678-2.929-10.606,0l-19.262,19.261V7.821    c0-4.142-3.358-7.5-7.5-7.5s-7.5,3.358-7.5,7.5v26.057l-19.261-19.261c-2.929-2.929-7.678-2.929-10.606,0    c-2.929,2.929-2.929,7.678,0,10.606l29.868,29.868V78.97l-35.459,20.472l-19.89-11.484V55.596    c0-15.167-5.995-29.337-16.881-39.901c-10.882-10.56-25.24-16.123-40.42-15.67c-29.716,0.891-53.893,26.725-53.893,57.587v30.564    h-16.549c-4.142,0-7.5,3.358-7.5,7.5s3.358,7.5,7.5,7.5h16.549v33.097h-16.549c-4.142,0-7.5,3.358-7.5,7.5s3.358,7.5,7.5,7.5    h16.549v33.097h-16.549c-4.142,0-7.5,3.358-7.5,7.5s3.358,7.5,7.5,7.5h16.549v33.097h-16.549c-4.142,0-7.5,3.358-7.5,7.5    s3.358,7.5,7.5,7.5h16.549l0,33.097h-16.548c-4.142,0-7.5,3.358-7.5,7.5s3.358,7.5,7.5,7.5h16.548v42.952    c-25.174,17.988-40.081,46.773-40.081,77.807c0,27.177,11.621,53.167,31.882,71.306c17.595,15.751,40.464,24.356,64.027,24.356    c3.548,0,7.112-0.195,10.675-0.59c43.733-4.849,79.112-40.097,84.124-83.81c4.017-35.032-11.03-68.781-39.433-89.069l0-158.59    l19.89-11.483l35.459,20.472v20.287l-29.868,29.868c-2.929,2.929-2.929,7.678,0,10.606c2.929,2.929,7.678,2.929,10.606,0    l19.261-19.261v29.649c0,4.142,3.358,7.5,7.5,7.5s7.5-3.358,7.5-7.5v-29.65l19.262,19.261c1.464,1.464,3.384,2.197,5.303,2.197    s3.839-0.732,5.303-2.197c2.929-2.929,2.929-7.678,0-10.606l-29.868-29.868v-20.282l37.26-21.512l20.018,11.557l10.932,40.801    c0.898,3.351,3.928,5.561,7.24,5.561c0.643,0,1.296-0.083,1.946-0.257c4.001-1.072,6.375-5.185,5.304-9.186l-7.05-26.312    l25.677,14.825c1.181,0.682,2.471,1.006,3.743,1.006c2.592,0,5.113-1.346,6.502-3.751c2.071-3.587,0.842-8.174-2.745-10.245    l-25.677-14.825l26.311-7.05c4.001-1.072,6.375-5.185,5.304-9.186C422.985,156.344,418.871,153.972,414.871,155.042z     M338.157,145.239l-19.567-11.297l19.567-11.297V145.239z M288.59,133.942l-23.151,13.366v-26.733L288.59,133.942z     M331.553,109.137l-22.26,12.852V96.286L331.553,109.137z M294.293,96.291v23.624l-20.459-11.812L294.293,96.291z     M263.475,425.875c-4.222,36.829-34.029,66.524-70.875,70.61c-23.335,2.585-45.723-4.528-63.044-20.033    c-17.087-15.297-26.887-37.213-26.887-60.13c0-27.32,13.712-52.58,36.68-67.569c2.122-1.385,3.401-3.747,3.401-6.281l0-284.86    c0-22.836,17.649-41.943,39.342-42.594c0.422-0.013,0.841-0.019,1.261-0.019c10.625,0,20.619,4.042,28.263,11.46    c7.949,7.714,12.327,18.062,12.327,29.137l0,286.876c0,2.534,1.279,4.896,3.401,6.281    C253.154,365.597,266.998,395.149,263.475,425.875z M238.944,105.279l11.494,6.636v44.053l-11.494,6.636L238.944,105.279z     M273.834,159.781l20.459-11.812v23.624L273.834,159.781z M309.293,171.598v-25.703l22.26,12.852L309.293,171.598z"/>
		<path d="M231.084,425.718c-3.562,19.164-18.789,34.538-37.891,38.256c-14.632,2.849-29.481-0.838-40.739-10.115    c-11.261-9.281-17.72-22.962-17.72-37.537c0-19.955,11.976-37.659,30.509-45.101c5.814-2.334,9.572-7.755,9.572-13.811v-61.846    h17.064v61.55c0,6.198,3.85,11.773,9.809,14.203c2.707,1.104,5.331,2.463,7.8,4.041c3.491,2.229,8.127,1.208,10.358-2.282    c2.23-3.491,1.208-8.128-2.282-10.358c-3.232-2.065-6.669-3.845-10.213-5.29c-0.328-0.134-0.463-0.313-0.473-0.313V55.596    c0-6.914-3.022-13.449-8.292-17.931c-5.267-4.48-12.242-6.406-19.138-5.285c-11.194,1.822-19.635,12.171-19.635,24.073v300.763    c-0.038,0.026-0.091,0.057-0.161,0.084c-24.25,9.739-39.919,32.906-39.919,59.021c0,19.071,8.449,36.972,23.18,49.112    c11.479,9.46,25.778,14.484,40.547,14.483c4.179,0,8.396-0.402,12.597-1.22c25.094-4.884,45.096-25.074,49.772-50.239    c2.244-12.073,1.104-24.342-3.297-35.48c-1.522-3.853-5.878-5.741-9.731-4.219c-3.852,1.522-5.741,5.879-4.219,9.731    C231.948,407.005,232.812,416.42,231.084,425.718z M181.859,47.186c2.582-0.422,5.072,0.256,7.011,1.905    c1.913,1.627,3.01,3.998,3.01,6.505v224.968h-17.064V56.454C174.815,51.9,177.91,47.829,181.859,47.186z"/>
	</g>
</g>















</svg>
