<svg id="Capa_1" enable-background="new 0 0 512 512" height="512" viewBox="0 0 512 512" width="512" xmlns="http://www.w3.org/2000/svg"><g fill="#a0c8ff"><path d="m250.044 90.163c5.356-7.372-.006-17.712-9.118-17.712h-42.264c-58.094 0-106.261 50.203-107.433 113.39-.023 1.265-.035 22.542-.035 23.83v143.942h137.452v-198.896s1.645-37.366 21.398-64.554z"/><path d="m335.471 93.552h-87.761c-17.55 26.8-19.06 61.17-19.06 61.17v78.61h244.57c15.9 0 28.78-12.89 28.78-28.78v-82.04c0-16-12.97-28.96-28.96-28.96h-49.616z"/><path d="m426.019 233.332v86.4h-127.189v-86.4z"/><path d="m38.96 93.552h97.94c-26.99 20.47-44.96 53.99-45.67 92.29-.02 1.26-.04 22.54-.04 23.83v23.66h-52.23c-15.99 0-28.96-12.97-28.96-28.96v-81.86c0-16 12.97-28.96 28.96-28.96z"/></g><path d="m426.02 233.332v44.93c-6.29 1.14-12.93-.28-18.31-4.24-8.746-6.602-20.133-5.707-28.81.35-8.244 5.712-19.516 5.549-27.59-.4-8.868-6.543-20.067-5.621-28.82.45-7.06 4.89-16.1 5.53-23.66 1.94v-43.03z" fill="#f9f5f3"/><path d="m228.65 261.152v46.45c-8.15 4.89-18.5 4.43-26.24-1.26-8.777-6.627-20.094-5.661-28.81.35-8.256 5.72-19.504 5.558-27.59-.4-8.876-6.548-20.056-5.607-28.82.45-7.8 5.41-18.02 5.61-26 .68v-46.45c7.98 4.93 18.2 4.73 26-.68 8.671-6.192 20.024-6.931 28.82-.45 8.17 6.02 19.25 6.18 27.59.4 8.77-6.162 19.957-6.757 28.81-.35 7.74 5.69 18.09 6.15 26.24 1.26z" fill="#f9f5f3"/><path d="m512 180.839v-58.327c0-21.482-17.478-38.96-38.96-38.96h-49.616c-5.522 0-10 4.477-10 10s4.478 10 10 10h49.616c10.454 0 18.96 8.505 18.96 18.96v39.351l-45.86-31.319c-3.4-2.323-7.879-2.323-11.279 0l-55.861 38.148-55.86-38.148c-3.4-2.323-7.879-2.323-11.279 0l-55.861 38.148-17.35-11.848v-1.852c.147-2.464 2.015-29.032 14.639-51.379.012-.02.023-.041.034-.061h82.147c5.522 0 10-4.477 10-10s-4.478-10-10-10h-73.31c-.019-3.234-.778-6.482-2.313-9.496-3.647-7.159-10.897-11.606-18.921-11.606h-42.264c-23.456 0-45.933 7.381-65.086 21.102h-94.616c-21.482 0-38.96 17.477-38.96 38.96v58.327.039 23.494c0 21.482 17.478 38.96 38.96 38.96h42.234v147.083c0 5.523 4.478 10 10 10s10-4.477 10-10v-26.802h25.817v75.938c0 5.523 4.478 10 10 10s10-4.477 10-10v-75.938h25.816v75.938c0 5.523 4.478 10 10 10s10-4.477 10-10v-75.938h25.817v75.938c0 5.523 4.478 10 10 10s10-4.477 10-10v-196.219h50.185v134.542c0 5.523 4.478 10 10 10s10-4.477 10-10v-48.142h22.396v48.142c0 5.523 4.478 10 10 10s10-4.477 10-10v-48.142h22.396v48.142c0 5.523 4.478 10 10 10s10-4.477 10-10v-48.142h22.396v48.142c0 5.523 4.478 10 10 10s10-4.477 10-10v-134.542h37.2c21.384 0 38.78-17.396 38.78-38.78v-23.674c.003-.013.003-.026.003-.039zm-410.806 93.59c7.543.551 15.214-1.426 21.68-5.91 5.189-3.711 11.804-4.606 17.204-.627 11.606 8.554 27.369 8.781 39.197.583 5.22-3.776 11.824-4.455 17.212-.526 6.556 4.82 14.414 7.013 22.158 6.514v26.338c-3.497.562-7.16-.256-10.172-2.414-12.061-9.37-28.434-8.281-40.569.085-4.772 3.307-11.286 3.216-15.958-.228-12.296-9.071-28.2-8.193-40.456.28-3.055 2.119-6.767 2.865-10.296 2.219zm139.732-191.979c1.07 0 1.344 1.044 1.028 1.834-.873 1.201-1.702 2.424-2.511 3.655-14.461 21.353-20.798 48.611-20.798 74.164v92.241c-3.501.561-7.158-.251-10.172-2.409-12.008-9.329-28.499-8.341-40.57.086-4.822 3.341-11.236 3.25-15.961-.231-12.228-9.01-28.259-8.258-40.452.283-3.055 2.119-6.768 2.863-10.296 2.216v-44.62c0-28.951 1.132-55.929 17.193-81.262 17.405-27.451 47.375-45.958 80.274-45.958h42.265zm-201.966 21.102h72.903c-9.148 10.717-16.392 22.873-21.536 35.976l-13.196-8.991c-3.401-2.316-7.873-2.314-11.271.006l-45.86 31.32v-39.351c0-10.455 8.506-18.96 18.96-18.96zm42.229 119.78h-42.229c-10.454 0-18.96-8.505-18.96-18.96v-18.29l51.507-35.175 12.755 8.69c-4.521 20.846-3.073 42.529-3.073 63.735zm20.005 97.527c7.544.557 15.214-1.405 21.68-5.889 5.276-3.646 11.743-4.655 17.204-.626 5.842 4.304 12.762 6.579 20.012 6.579 6.89 0 13.531-2.079 19.188-5.999 5.312-3.664 11.75-4.543 17.209-.524 5.947 4.373 12.963 6.583 19.999 6.583.72 0 1.44-.026 2.159-.072v22.702h-117.451zm207.636-32.24c6.806.025 13.592-1.985 19.361-5.981 5.264-3.652 11.738-4.634 17.187-.615 11.495 8.469 27.513 8.68 39.244.55 5.26-3.671 11.758-4.493 17.16-.497 4.233 3.116 9.13 5.155 14.237 6.043v21.613h-107.189zm107.19-21.246c-.78-.359-1.529-.792-2.234-1.298-12.075-9.275-28.448-8.388-40.582.078-4.76 3.3-11.295 3.206-15.957-.228-12.275-9.055-28.216-8.217-40.449.277-2.374 1.644-5.201 2.479-7.967 2.44v-25.31h107.189zm57.2-44.041h-47.2-127.19-60.18v-42.269l11.71 7.997c3.4 2.322 7.879 2.323 11.279 0l55.86-38.148 55.86 38.148c3.4 2.323 7.879 2.323 11.279 0l55.86-38.148 51.5 35.171v18.47c.002 10.354-8.423 18.779-18.778 18.779z"/><path d="m371.39 97.38c2.095 5.028 8.019 7.498 13.061 5.41 5.034-2.085 7.486-8.031 5.409-13.06-2.081-5.038-8.029-7.487-13.06-5.41-5.052 2.085-7.477 8.019-5.41 13.06z"/><path d="m100.42 435.73c-2.068-5.048-8.036-7.492-13.061-5.41-5.037 2.087-7.474 8.019-5.399 13.05 2.077 5.034 8.019 7.499 13.05 5.41 5.024-2.086 7.507-8.015 5.41-13.05z"/></svg>