<svg id="Layer_3" enable-background="new 0 0 64 64" height="512" viewBox="0 0 64 64" width="512" xmlns="http://www.w3.org/2000/svg"><path d="m32 34-5 3v4l5 3 5-3v-4z" fill="#c7e2fc"/><path d="m57 10c-.359 0-.707.041-1.045.113-.445-4.554-4.284-8.113-8.955-8.113s-8.51 3.559-8.955 8.113c-.338-.072-.686-.113-1.045-.113-2.761 0-5 2.239-5 5s2.239 5 5 5c1.717 0 3.231-.867 4.131-2.186 1.576 1.359 3.624 2.186 5.869 2.186s4.293-.827 5.869-2.186c.9 1.319 2.414 2.186 4.131 2.186 2.761 0 5-2.239 5-5s-2.239-5-5-5z" fill="#a1cdfb"/><path d="m27 10c-.359 0-.707.041-1.045.113-.445-4.554-4.284-8.113-8.955-8.113s-8.51 3.559-8.955 8.113c-.338-.072-.686-.113-1.045-.113-2.761 0-5 2.239-5 5s2.239 5 5 5c1.717 0 3.231-.867 4.131-2.186 1.576 1.359 3.624 2.186 5.869 2.186s4.293-.827 5.869-2.186c.9 1.319 2.414 2.186 4.131 2.186 2.761 0 5-2.239 5-5s-2.239-5-5-5z" fill="#a1cdfb"/><g fill="#c7e2fc"><path d="m42 14c-.359 0-.707.041-1.045.113-.445-4.554-4.284-8.113-8.955-8.113s-8.51 3.559-8.955 8.113c-.338-.072-.686-.113-1.045-.113-2.761 0-5 2.239-5 5s2.239 5 5 5c1.717 0 3.231-.867 4.131-2.186 1.576 1.359 3.624 2.186 5.869 2.186s4.293-.827 5.869-2.186c.9 1.319 2.414 2.186 4.131 2.186 2.761 0 5-2.239 5-5s-2.239-5-5-5z"/><circle cx="60" cy="26" r="2"/><circle cx="50" cy="33" r="2"/><circle cx="58" cy="40" r="2"/><circle cx="4" cy="26" r="2"/><circle cx="14" cy="33" r="2"/><circle cx="6" cy="40" r="2"/></g><path d="m42 25c-1.626 0-3.165-.659-4.284-1.803-1.672 1.169-3.667 1.803-5.716 1.803s-4.044-.634-5.716-1.803c-1.119 1.144-2.658 1.803-4.284 1.803-3.309 0-6-2.691-6-6 0-3.375 2.772-6.14 6.2-5.996.928-4.628 4.976-8.004 9.8-8.004s8.872 3.376 9.8 8.004c3.423-.148 6.2 2.621 6.2 5.996 0 3.309-2.691 6-6 6zm-4.131-4.187c.043 0 .087.003.13.009.282.037.535.192.696.428.748 1.096 1.984 1.75 3.305 1.75 2.206 0 4-1.794 4-4 0-2.478-2.251-4.46-4.836-3.909-.279.062-.569-.003-.799-.17-.23-.169-.378-.427-.405-.71-.402-4.111-3.824-7.211-7.96-7.211s-7.558 3.1-7.96 7.211c-.027.283-.175.541-.405.71-.229.168-.518.234-.799.17-2.584-.552-4.836 1.431-4.836 3.909 0 2.206 1.794 4 4 4 1.321 0 2.557-.654 3.305-1.75.161-.235.414-.391.696-.428.283-.038.567.048.783.234 1.453 1.254 3.306 1.944 5.216 1.944s3.763-.69 5.216-1.943c.182-.159.415-.244.653-.244z"/><path d="m57 21c-1.626 0-3.165-.659-4.284-1.803-1.672 1.169-3.667 1.803-5.716 1.803v-2c1.91 0 3.763-.69 5.216-1.943.216-.187.502-.271.783-.234.282.037.535.192.696.428.748 1.095 1.984 1.749 3.305 1.749 2.206 0 4-1.794 4-4 0-2.478-2.252-4.461-4.836-3.909-.28.062-.569-.003-.799-.17-.23-.169-.378-.427-.405-.71-.402-4.111-3.824-7.211-7.96-7.211-3.525 0-6.682 2.36-7.675 5.739l-1.918-.564c1.241-4.225 5.186-7.175 9.593-7.175 4.824 0 8.872 3.376 9.8 8.004.067-.003.134-.004.2-.004 3.309 0 6 2.691 6 6s-2.691 6-6 6z"/><path d="m17 21c-2.049 0-4.044-.634-5.716-1.803-1.119 1.144-2.658 1.803-4.284 1.803-3.309 0-6-2.691-6-6s2.691-6 6-6c.066 0 .133.001.2.004.928-4.628 4.976-8.004 9.8-8.004 4.407 0 8.352 2.95 9.593 7.175l-1.918.564c-.993-3.379-4.15-5.739-7.675-5.739-4.136 0-7.558 3.1-7.96 7.211-.027.283-.175.541-.405.71-.229.168-.519.233-.799.17-2.583-.553-4.836 1.431-4.836 3.909 0 2.206 1.794 4 4 4 1.321 0 2.557-.654 3.305-1.75.161-.235.414-.391.696-.428.28-.036.568.048.783.234 1.453 1.254 3.306 1.944 5.216 1.944z"/><path d="m32 45c-.178 0-.356-.048-.515-.143l-5-3c-.3-.18-.485-.505-.485-.857v-4c0-.352.185-.677.485-.857l5-3c.316-.189.713-.189 1.029 0l5 3c.301.18.486.505.486.857v4c0 .352-.185.677-.485.857l-5 3c-.159.095-.337.143-.515.143zm-4-4.566 4 2.4 4-2.4v-2.867l-4-2.4-4 2.4z"/><path d="m31 27h2v7h-2z"/><path d="m29 29h6v2h-6z"/><path d="m31 44h2v7h-2z"/><path d="m29 47h6v2h-6z"/><path d="m35.964 33.5h7.071v2h-7.071z" transform="matrix(.707 -.707 .707 .707 -12.826 38.036)"/><path d="m38.5 30.964h2v7.071h-2z" transform="matrix(.707 -.707 .707 .707 -12.826 38.036)"/><path d="m38.5 39.964h2v7.071h-2z" transform="matrix(.707 -.707 .707 .707 -19.19 40.672)"/><path d="m35.964 42.5h7.071v2h-7.071z" transform="matrix(.707 -.707 .707 .707 -19.19 40.672)"/><path d="m23.5 30.964h2v7.071h-2z" transform="matrix(.707 -.707 .707 .707 -17.219 27.429)"/><path d="m20.964 33.5h7.071v2h-7.071z" transform="matrix(.707 -.707 .707 .707 -17.219 27.429)"/><path d="m20.964 42.5h7.071v2h-7.071z" transform="matrix(.707 -.707 .707 .707 -23.583 30.065)"/><path d="m23.5 39.964h2v7.071h-2z" transform="matrix(.707 -.707 .707 .707 -23.583 30.065)"/><path d="m53 45h2v18h-2z"/><path d="m54 52c-.256 0-.512-.098-.707-.293l-4-4 1.414-1.414 3.293 3.293 3.293-3.293 1.414 1.414-4 4c-.195.195-.451.293-.707.293z"/><path d="m57.293 61.707-3.293-3.293-3.293 3.293-1.414-1.414 4-4c.391-.391 1.023-.391 1.414 0l4 4z"/><path d="m45 53h18v2h-18z"/><path d="m47.707 58.707-1.414-1.414 3.293-3.293-3.293-3.293 1.414-1.414 4 4c.391.391.391 1.023 0 1.414z"/><path d="m60.293 58.707-4-4c-.391-.391-.391-1.023 0-1.414l4-4 1.414 1.414-3.293 3.293 3.293 3.293z"/><path d="m9 45h2v18h-2z"/><path d="m10 52c-.256 0-.512-.098-.707-.293l-4-4 1.414-1.414 3.293 3.293 3.293-3.293 1.414 1.414-4 4c-.195.195-.451.293-.707.293z"/><path d="m13.293 61.707-3.293-3.293-3.293 3.293-1.414-1.414 4-4c.391-.391 1.023-.391 1.414 0l4 4z"/><path d="m1 53h18v2h-18z"/><path d="m3.707 58.707-1.414-1.414 3.293-3.293-3.293-3.293 1.414-1.414 4 4c.391.391.391 1.023 0 1.414z"/><path d="m16.293 58.707-4-4c-.391-.391-.391-1.023 0-1.414l4-4 1.414 1.414-3.293 3.293 3.293 3.293z"/><path d="m60 29c-1.654 0-3-1.346-3-3s1.346-3 3-3 3 1.346 3 3-1.346 3-3 3zm0-4c-.552 0-1 .448-1 1s.448 1 1 1 1-.448 1-1-.448-1-1-1z"/><path d="m50 36c-1.654 0-3-1.346-3-3s1.346-3 3-3 3 1.346 3 3-1.346 3-3 3zm0-4c-.552 0-1 .448-1 1s.448 1 1 1 1-.448 1-1-.448-1-1-1z"/><path d="m58 43c-1.654 0-3-1.346-3-3s1.346-3 3-3 3 1.346 3 3-1.346 3-3 3zm0-4c-.552 0-1 .448-1 1s.448 1 1 1 1-.448 1-1-.448-1-1-1z"/><path d="m4 29c-1.654 0-3-1.346-3-3s1.346-3 3-3 3 1.346 3 3-1.346 3-3 3zm0-4c-.552 0-1 .448-1 1s.448 1 1 1 1-.448 1-1-.448-1-1-1z"/><path d="m14 36c-1.654 0-3-1.346-3-3s1.346-3 3-3 3 1.346 3 3-1.346 3-3 3zm0-4c-.552 0-1 .448-1 1s.448 1 1 1 1-.448 1-1-.448-1-1-1z"/><path d="m6 43c-1.654 0-3-1.346-3-3s1.346-3 3-3 3 1.346 3 3-1.346 3-3 3zm0-4c-.552 0-1 .448-1 1s.448 1 1 1 1-.448 1-1-.448-1-1-1z"/></svg>