<?xml version="1.0" encoding="iso-8859-1"?>
<!-- Generator: Adobe Illustrator 19.0.0, SVG Export Plug-In . SVG Version: 6.00 Build 0)  -->
<svg version="1.1" id="Capa_1" xmlns="http://www.w3.org/2000/svg" xmlns:xlink="http://www.w3.org/1999/xlink" x="0px" y="0px"
	 viewBox="0 0 512.003 512.003" style="enable-background:new 0 0 512.003 512.003;" xml:space="preserve">
<g>
	<path style="fill:#92D2E7;" d="M222.829,241.603c-4.805,0-9.61-1.833-13.276-5.499l-97.178-97.178
		c-7.332-7.332-7.332-19.219,0-26.552c7.333-7.332,19.22-7.332,26.552,0l97.178,97.178c7.332,7.332,7.332,19.219,0,26.552
		C232.438,239.77,227.634,241.603,222.829,241.603z"/>
	<path style="fill:#92D2E7;" d="M125.651,405.124c-4.805,0-9.609-1.833-13.276-5.499c-7.332-7.332-7.332-19.219,0-26.552
		l97.178-97.178c7.332-7.332,19.219-7.332,26.552,0c7.332,7.332,7.332,19.219,0,26.552l-97.178,97.178
		C135.261,403.291,130.456,405.124,125.651,405.124z"/>
	<path style="fill:#92D2E7;" d="M386.351,405.124c-4.805,0-9.61-1.833-13.276-5.499l-97.178-97.178
		c-7.332-7.332-7.332-19.219,0-26.552c7.333-7.332,19.22-7.332,26.552,0l97.178,97.178c7.332,7.332,7.332,19.219,0,26.552
		C395.96,403.291,391.155,405.124,386.351,405.124z"/>
	<path style="fill:#92D2E7;" d="M289.173,241.603c-4.805,0-9.609-1.833-13.276-5.499c-7.332-7.332-7.332-19.219,0-26.552
		l97.178-97.178c7.332-7.332,19.219-7.332,26.552,0c7.332,7.332,7.332,19.219,0,26.552l-97.178,97.178
		C298.783,239.77,293.978,241.603,289.173,241.603z"/>
</g>
<g style="opacity:0.1;">
	<path d="M222.829,241.603c-4.805,0-9.61-1.833-13.276-5.499l-97.178-97.178c-7.332-7.332-7.332-19.219,0-26.552
		c7.333-7.332,19.22-7.332,26.552,0l97.178,97.178c7.332,7.332,7.332,19.219,0,26.552
		C232.438,239.77,227.634,241.603,222.829,241.603z"/>
	<path d="M125.651,405.124c-4.805,0-9.609-1.833-13.276-5.499c-7.332-7.332-7.332-19.219,0-26.552l97.178-97.178
		c7.332-7.332,19.219-7.332,26.552,0c7.332,7.332,7.332,19.219,0,26.552l-97.178,97.178
		C135.261,403.291,130.456,405.124,125.651,405.124z"/>
	<path d="M386.351,405.124c-4.805,0-9.61-1.833-13.276-5.499l-97.178-97.178c-7.332-7.332-7.332-19.219,0-26.552
		c7.333-7.332,19.22-7.332,26.552,0l97.178,97.178c7.332,7.332,7.332,19.219,0,26.552
		C395.96,403.291,391.155,405.124,386.351,405.124z"/>
	<path d="M289.173,241.603c-4.805,0-9.609-1.833-13.276-5.499c-7.332-7.332-7.332-19.219,0-26.552l97.178-97.178
		c7.332-7.332,19.219-7.332,26.552,0c7.332,7.332,7.332,19.219,0,26.552l-97.178,97.178
		C298.783,239.77,293.978,241.603,289.173,241.603z"/>
</g>
<path style="fill:#92D2E7;" d="M466.015,256l32.987-32.987c7.332-7.332,7.332-19.219,0-26.552c-7.333-7.332-19.22-7.332-26.552,0
	l-40.764,40.764h-23.869l14.212-14.212c7.332-7.332,7.332-19.219,0-26.552c-7.333-7.332-19.22-7.332-26.552,0l-40.764,40.764
	h-35.775c-6.32-21.146-23.018-37.845-44.164-44.164v-35.775l40.764-40.764c7.332-7.332,7.332-19.219,0-26.552
	c-7.332-7.332-19.22-7.332-26.552,0l-14.212,14.212V80.314l40.764-40.764c7.332-7.332,7.332-19.219,0-26.552
	c-7.332-7.332-19.22-7.332-26.552,0l-32.985,32.988l-32.987-32.987c-7.332-7.332-19.22-7.332-26.552,0s-7.332,19.219,0,26.552
	l40.764,40.764v23.869l-14.212-14.212c-7.332-7.332-19.22-7.332-26.552,0s-7.332,19.219,0,26.552l40.764,40.764v35.775
	c-21.146,6.32-37.845,23.019-44.164,44.164h-35.775l-40.764-40.764c-7.332-7.332-19.219-7.332-26.552,0
	c-7.332,7.332-7.332,19.219,0,26.552l14.212,14.212H80.315l-40.764-40.765c-7.332-7.332-19.219-7.332-26.552,0
	c-7.332,7.332-7.332,19.219,0,26.552L45.987,256L13,288.987c-7.332,7.332-7.332,19.219,0,26.552
	c3.666,3.666,8.471,5.499,13.276,5.499s9.61-1.833,13.276-5.499l40.764-40.764h23.869l-14.212,14.212
	c-7.332,7.332-7.332,19.219,0,26.552c3.667,3.666,8.471,5.499,13.276,5.499s9.61-1.833,13.276-5.499l40.764-40.764h35.775
	c6.32,21.146,23.019,37.845,44.164,44.164v35.775l-40.764,40.764c-7.332,7.332-7.332,19.219,0,26.552
	c7.332,7.332,19.22,7.332,26.552,0l14.212-14.212v23.869l-40.764,40.764c-7.332,7.332-7.332,19.22,0,26.552s19.22,7.332,26.552,0
	l32.985-32.989l32.987,32.987c3.666,3.666,8.471,5.499,13.276,5.499s9.61-1.833,13.276-5.499c7.332-7.332,7.332-19.219,0-26.552
	l-40.764-40.764v-23.869l14.212,14.212c3.666,3.666,8.471,5.499,13.276,5.499s9.61-1.833,13.276-5.499
	c7.332-7.332,7.332-19.219,0-26.552l-40.764-40.764v-35.775c21.146-6.32,37.845-23.018,44.164-44.164h35.775l40.764,40.764
	c3.666,3.666,8.471,5.499,13.276,5.499s9.609-1.833,13.276-5.499c7.332-7.332,7.332-19.22,0-26.552l-14.212-14.212h23.869
	l40.764,40.764c3.666,3.666,8.471,5.499,13.276,5.499s9.609-1.833,13.276-5.499c7.332-7.332,7.332-19.22,0-26.552L466.015,256z
	 M256.001,284.138c-15.515,0-28.138-12.622-28.138-28.138s12.623-28.138,28.138-28.138s28.138,12.622,28.138,28.138
	S271.516,284.138,256.001,284.138z"/>
<path d="M195.821,40.946c3.762-1.733,5.407-6.188,3.674-9.95c-1.966-4.268-1.053-9.369,2.272-12.694
	c2.129-2.129,4.961-3.302,7.972-3.302s5.843,1.173,7.972,3.302l32.987,32.987c2.929,2.929,7.678,2.929,10.606,0l32.987-32.987
	c2.129-2.129,4.961-3.302,7.972-3.302c3.012,0,5.843,1.173,7.973,3.302c4.396,4.396,4.396,11.549,0,15.945l-40.764,40.764
	c-1.407,1.406-2.197,3.314-2.197,5.303v23.869c0,3.034,1.827,5.768,4.63,6.929c2.802,1.159,6.028,0.519,8.173-1.626l14.212-14.212
	c4.397-4.396,11.549-4.395,15.945,0c4.396,4.396,4.396,11.549,0,15.945l-40.764,40.764c-1.407,1.406-2.197,3.314-2.197,5.303v35.775
	c0,3.315,2.176,6.237,5.353,7.186c3.814,1.14,7.443,2.664,10.872,4.499c0.102,0.058,0.203,0.118,0.308,0.171
	c9.853,5.352,17.921,13.42,23.274,23.273c0.055,0.108,0.117,0.214,0.178,0.32c1.833,3.425,3.355,7.052,4.494,10.862
	c0.949,3.176,3.871,5.352,7.186,5.352h35.775c1.989,0,3.896-0.79,5.303-2.197l40.764-40.763c4.395-4.396,11.547-4.396,15.945,0
	c4.396,4.396,4.396,11.549,0,15.945l-14.212,14.212c-2.145,2.145-2.787,5.371-1.626,8.173c1.161,2.803,3.895,4.63,6.929,4.63h23.869
	c1.989,0,3.897-0.79,5.303-2.197l22.813-22.814c2.929-2.929,2.929-7.678,0-10.606c-2.929-2.929-7.678-2.929-10.606,0l-20.617,20.617
	h-2.656l1.409-1.409c10.244-10.245,10.244-26.913,0-37.158c-10.245-10.243-26.914-10.244-37.158,0.001l-38.567,38.566h-27.306
	c-0.447-1.163-0.925-2.309-1.427-3.441l82.056-82.055c10.243-10.245,10.243-26.914-0.001-37.158
	c-10.244-10.243-26.913-10.243-37.158,0l-82.055,82.055c-1.132-0.502-2.278-0.98-3.441-1.427v-27.307l38.567-38.567
	c10.244-10.245,10.244-26.914,0-37.158c-4.962-4.962-11.561-7.695-18.579-7.695s-13.616,2.733-18.579,7.695l-1.409,1.409V83.42
	l38.567-38.567c10.245-10.244,10.245-26.914,0-37.158C315.88,2.733,309.282,0,302.263,0c-7.018,0-13.617,2.733-18.579,7.696
	l-27.683,27.683L228.318,7.696C223.356,2.733,216.757,0,209.739,0c-7.019,0-13.617,2.733-18.579,7.696
	c-7.745,7.745-9.871,19.631-5.289,29.577C187.604,41.034,192.057,42.68,195.821,40.946z M378.378,117.678
	c4.395-4.396,11.549-4.396,15.945-0.001c4.396,4.396,4.396,11.549,0,15.945l-79.211,79.211c-4.457-6.111-9.834-11.489-15.946-15.945
	L378.378,117.678z M476.622,256l27.684-27.684c4.963-4.962,7.696-11.561,7.696-18.579c0-7.019-2.733-13.617-7.696-18.58
	c-8.652-8.651-21.96-10.211-32.363-3.794c-3.525,2.175-4.62,6.796-2.445,10.321s6.793,4.621,10.321,2.446
	c4.459-2.751,10.167-2.078,13.881,1.635c2.129,2.129,3.302,4.961,3.302,7.973c0,3.011-1.173,5.843-3.302,7.972l-32.987,32.987
	c-2.929,2.929-2.929,7.678,0,10.606L493.7,294.29c2.129,2.129,3.302,4.961,3.302,7.972c0,3.012-1.173,5.843-3.302,7.973
	c-2.129,2.129-4.961,3.302-7.972,3.302c-3.012,0-5.843-1.173-7.973-3.302l-40.764-40.763c-1.407-1.407-3.314-2.197-5.303-2.197
	h-23.869c-3.034,0-5.768,1.827-6.929,4.63c-1.161,2.803-0.519,6.028,1.626,8.173l14.212,14.212c4.396,4.396,4.396,11.549,0,15.944
	c-2.13,2.13-4.962,3.303-7.973,3.303c-3.012,0-5.843-1.173-7.973-3.302l-40.764-40.763c-1.407-1.407-3.314-2.197-5.303-2.197H318.94
	c-3.315,0-6.237,2.176-7.186,5.353c-1.139,3.81-2.661,7.437-4.494,10.862c-0.061,0.106-0.123,0.212-0.178,0.32
	c-5.353,9.853-13.421,17.92-23.275,23.273c-0.104,0.053-0.205,0.113-0.307,0.171c-3.428,1.836-7.058,3.36-10.872,4.5
	c-3.176,0.949-5.353,3.871-5.353,7.186v35.775c0,1.989,0.79,3.897,2.197,5.303l40.763,40.764c4.396,4.396,4.396,11.549,0,15.946
	c-2.129,2.129-4.961,3.302-7.972,3.302c-3.012,0-5.843-1.173-7.972-3.302l-14.212-14.212c-2.145-2.145-5.372-2.785-8.173-1.626
	c-2.803,1.161-4.63,3.895-4.63,6.929v23.869c0,1.989,0.79,3.897,2.197,5.303l40.764,40.764c4.396,4.396,4.396,11.549,0,15.945
	c-2.129,2.129-4.961,3.302-7.972,3.302c-3.012,0-5.843-1.173-7.972-3.302l-32.987-32.987c-2.929-2.929-7.678-2.929-10.606,0
	L217.713,493.7c-2.129,2.129-4.961,3.302-7.972,3.302c-3.012,0-5.843-1.173-7.973-3.302c-4.396-4.396-4.396-11.549,0-15.945
	l40.764-40.764c1.407-1.406,2.197-3.314,2.197-5.303v-23.869c0-3.034-1.827-5.768-4.63-6.929c-2.803-1.161-6.029-0.519-8.173,1.626
	l-14.212,14.212c-4.396,4.396-11.548,4.396-15.945,0c-4.396-4.396-4.396-11.549,0-15.945l40.764-40.764
	c1.407-1.406,2.197-3.314,2.197-5.303v-35.775c0-3.315-2.176-6.237-5.353-7.186c-3.814-1.14-7.443-2.664-10.872-4.499
	c-0.102-0.058-0.203-0.118-0.307-0.171c-9.853-5.352-17.921-13.42-23.274-23.273c-0.055-0.108-0.118-0.214-0.178-0.32
	c-1.833-3.425-3.355-7.052-4.494-10.862c-0.949-3.176-3.871-5.353-7.186-5.353h-35.775c-1.989,0-3.896,0.79-5.303,2.197
	l-40.764,40.763c-2.13,2.129-4.961,3.302-7.973,3.302c-3.011,0-5.843-1.173-7.973-3.302c-4.396-4.396-4.396-11.549,0-15.945
	l14.212-14.212c2.145-2.145,2.787-5.371,1.626-8.173c-1.161-2.803-3.896-4.63-6.929-4.63H80.315c-1.989,0-3.896,0.79-5.303,2.197
	l-40.764,40.764c-2.129,2.129-4.961,3.302-7.972,3.302s-5.843-1.173-7.972-3.302s-3.302-4.961-3.302-7.973
	c0-3.011,1.173-5.843,3.302-7.972l32.987-32.987c2.929-2.929,2.929-7.678,0-10.606l-32.988-32.99
	c-2.129-2.129-3.302-4.961-3.302-7.972c0-3.012,1.173-5.843,3.302-7.972c2.13-2.13,4.961-3.303,7.973-3.303s5.843,1.173,7.972,3.302
	l40.764,40.763c1.407,1.407,3.314,2.197,5.303,2.197h23.869c3.034,0,5.768-1.827,6.929-4.63c1.161-2.803,0.519-6.028-1.626-8.173
	L95.275,217.71c-4.396-4.396-4.396-11.549-0.001-15.944c4.396-4.396,11.549-4.397,15.946,0l40.764,40.763
	c1.407,1.407,3.314,2.197,5.303,2.197h35.775c3.315,0,6.237-2.176,7.186-5.352c1.139-3.81,2.661-7.437,4.494-10.862
	c0.061-0.106,0.123-0.212,0.178-0.321c5.353-9.853,13.421-17.92,23.274-23.272c0.104-0.053,0.206-0.113,0.308-0.171
	c3.428-1.835,7.058-3.359,10.871-4.499c3.176-0.949,5.353-3.871,5.353-7.186v-35.775c0-1.989-0.79-3.897-2.197-5.303l-40.763-40.764
	c-4.396-4.396-4.396-11.549,0-15.945s11.548-4.396,15.945,0l14.212,14.212c2.146,2.146,5.372,2.787,8.173,1.626
	c2.803-1.161,4.63-3.896,4.63-6.929V80.314c0-1.989-0.79-3.897-2.197-5.303l-25.006-25.005c-2.929-2.929-7.678-2.929-10.606,0
	c-2.929,2.929-2.929,7.678,0,10.606l22.809,22.809v2.656l-1.409-1.409c-4.962-4.962-11.561-7.695-18.579-7.695
	c-7.019,0-13.617,2.733-18.579,7.695c-10.244,10.244-10.245,26.913,0,37.158l38.567,38.567V187.7
	c-1.163,0.447-2.309,0.925-3.441,1.427l-82.055-82.055c-10.244-10.243-26.913-10.243-37.158,0
	c-10.244,10.244-10.244,26.913,0,37.158l82.055,82.055c-0.502,1.132-0.98,2.278-1.427,3.441h-27.307l-38.567-38.566
	c-10.244-10.244-26.913-10.245-37.158,0c-4.963,4.962-7.696,11.56-7.696,18.579c0,7.018,2.733,13.616,7.696,18.579l1.409,1.409
	h-2.656l-38.567-38.566c-4.962-4.963-11.56-7.696-18.579-7.696c-7.018,0-13.616,2.733-18.579,7.696
	c-4.962,4.96-7.695,11.558-7.695,18.577c0,7.018,2.733,13.616,7.696,18.579L35.38,256L7.697,283.684
	c-4.963,4.962-7.696,11.56-7.696,18.578c0,7.019,2.733,13.617,7.696,18.579c4.962,4.963,11.561,7.696,18.579,7.696
	c7.019,0,13.617-2.733,18.579-7.696l38.567-38.566h2.656l-1.409,1.409c-4.963,4.962-7.696,11.561-7.696,18.579
	c0,7.019,2.733,13.617,7.696,18.58c4.963,4.962,11.561,7.695,18.579,7.695c7.019,0,13.617-2.733,18.579-7.696l38.567-38.566h27.307
	c0.447,1.163,0.925,2.309,1.427,3.441l-82.055,82.055c-10.243,10.245-10.243,26.914,0.001,37.158
	c4.962,4.962,11.561,7.695,18.579,7.695c7.019,0,13.617-2.733,18.579-7.695l13.118-13.118c2.929-2.929,2.929-7.678,0-10.606
	c-2.929-2.929-7.678-2.929-10.606,0l-13.118,13.118c-2.129,2.129-4.96,3.302-7.973,3.302c-3.012,0-5.843-1.173-7.972-3.302
	c-4.396-4.396-4.396-11.549-0.001-15.945l79.211-79.211c4.457,6.111,9.834,11.489,15.946,15.945l-45.124,45.125
	c-2.929,2.929-2.929,7.678,0,10.606c1.464,1.464,3.384,2.197,5.303,2.197c1.919,0,3.839-0.732,5.303-2.197l47.968-47.968
	c1.132,0.502,2.278,0.98,3.441,1.427v27.307l-38.567,38.567c-10.244,10.245-10.244,26.914,0.001,37.158
	c4.962,4.962,11.56,7.695,18.579,7.695c7.018,0,13.616-2.733,18.579-7.695l1.409-1.409v2.656l-38.567,38.567
	c-10.245,10.244-10.245,26.914-0.001,37.158c4.963,4.963,11.561,7.696,18.58,7.696c7.018,0,13.617-2.733,18.579-7.696l27.681-27.686
	l27.683,27.683c4.962,4.963,11.561,7.696,18.579,7.696c7.019,0,13.617-2.733,18.579-7.696c10.245-10.244,10.245-26.914,0-37.158
	l-38.567-38.567v-2.656l1.409,1.409c4.962,4.963,11.561,7.696,18.579,7.696c7.019,0,13.617-2.733,18.579-7.696
	c10.244-10.244,10.245-26.913,0-37.158l-38.567-38.567V324.3c1.163-0.447,2.309-0.925,3.441-1.427l82.055,82.055
	c4.962,4.962,11.561,7.695,18.579,7.695s13.616-2.733,18.579-7.695c10.244-10.244,10.244-26.913,0-37.158l-82.055-82.055
	c0.502-1.132,0.98-2.278,1.427-3.441h27.307l38.567,38.566c4.962,4.963,11.561,7.696,18.579,7.696s13.616-2.733,18.579-7.696
	c10.244-10.245,10.244-26.913,0-37.158l-1.409-1.409h2.656l38.566,38.566c4.962,4.963,11.56,7.696,18.58,7.696
	c7.018,0,13.616-2.733,18.579-7.696c4.963-4.962,7.696-11.561,7.696-18.579s-2.733-13.616-7.696-18.579L476.622,256z
	 M117.679,133.624c-4.396-4.396-4.396-11.55-0.001-15.945c4.396-4.396,11.549-4.396,15.946-0.001l79.212,79.212
	c-6.111,4.456-11.489,9.834-15.946,15.945L117.679,133.624z M394.323,378.376c4.396,4.396,4.396,11.55,0.001,15.945
	c-2.13,2.129-4.962,3.302-7.973,3.302c-3.012,0-5.843-1.173-7.973-3.302l-79.212-79.211c6.112-4.456,11.489-9.834,15.946-15.945
	L394.323,378.376z M256.001,220.362c-19.651,0-35.638,15.987-35.638,35.638s15.987,35.638,35.638,35.638
	s35.638-15.987,35.638-35.638S275.652,220.362,256.001,220.362z M256.001,276.638c-11.38,0-20.638-9.258-20.638-20.638
	s9.258-20.638,20.638-20.638s20.638,9.258,20.638,20.638S267.381,276.638,256.001,276.638z"/>
<g>
</g>
<g>
</g>
<g>
</g>
<g>
</g>
<g>
</g>
<g>
</g>
<g>
</g>
<g>
</g>
<g>
</g>
<g>
</g>
<g>
</g>
<g>
</g>
<g>
</g>
<g>
</g>
<g>
</g>
</svg>
